<svg xmlns="http://www.w3.org/2000/svg" version="1.1" xmlns:xlink="http://www.w3.org/1999/xlink" xmlns:svgjs="http://svgjs.dev/svgjs" width="1500" height="1687" viewBox="0 0 1500 1687"><g transform="matrix(1,0,0,1,0.00011015625000254659,0)"><svg viewBox="0 0 320 360" data-background-color="#ffffff" preserveAspectRatio="xMidYMid meet" height="1687" width="1500" xmlns="http://www.w3.org/2000/svg" xmlns:xlink="http://www.w3.org/1999/xlink"><g id="tight-bounds" transform="matrix(1,0,0,1,0.000023499999997511622,0)"><svg viewBox="0 0 320 360" height="360" width="320"><g><svg></svg></g><g><svg viewBox="0 0 320 360" height="360" width="320"><g><path transform="translate(-74.99272,-51.79039) scale(4.65793,4.65793)" d="M20.6 59.9l0.8 1-0.4-1.3c-0.1-0.6-0.8 0.1-0.4 0.3M21.5 59.3c0.3 0.5 0.6 1 0.6 1.5 0 0.7 0.6 1 1.1 1.2-0.7-0.8-1.1-3-1.7-2.7M59.9 16.9c1.7 0 3.3-0.2 5.1 0.2 4.4 1.1 8.1 3.3 10.6 6.4l7 11.2c0.3 2.8 0.9 5.9 0.8 9.3 0.7 0 0.6-1 1.4-1.2-0.8 2-1.2 4.5-1.4 7.4-0.5-1.6 0-4 0.1-5.3-0.7 1.1-1.1 0.3-1.1-0.2 0.1-0.8-0.3-0.7-0.6-1-1.1-1-1.8-2.1-2.6-3.8 0.5-1.3 0.6-3.2-1-4.2-0.5-0.3-1.1-0.8-1.4-1.6-0.4-1.1-1.1-2.4-0.9-4.1 0.1-0.5-1.5 1.1-2.4 0.4-3.9-2.7-7.8-5.8-12.5-8.4-2.5 0-4.3-0.9-5.2-2-0.8-1-0.2-2.3 1-2.4 0.7 0 1.5-0.2 2.1 0.2 0.1-0.4 0.5-0.9 1-0.9M50 14.6l0.2 0.1c1 0.2 1.5 1.6 2.6 1.1 0 0.7 0.1 1.4-0.1 1.9-0.3 0.8-1.2 0.8-1.9 0.8-6.7-0.4-10.6 2.4-14.7 4.8-1.1 0.7-2.3 1.2-3.2 2.1-4.3 4-9 7.7-10.1 15.1l-0.9 8.2c-0.1 0.9-1.1 1.8-0.9 2.9l0.7 4.9c-0.7-0.7-1.1 0.2-0.9 0.6 0.1 0.3 0.5 1.3 1.1 0.4 0.8 1.5 1.6 4.4 2.7 5.7 3.4 4 7.8 7.6 11.4 11.2 0.9-0.2 1.6-0.2 1.8-0.8 0.3 0.6-0.3 1.2-0.8 1.3 1.6 1 3.4 1.9 5.8 2.1 3.1 0.2 6 0.7 8.7 1.4 1.4-0.4 2.8-0.6 4.3-0.7 0.5 0 0.8-0.8 1.4-1l0.1-1c0.6 0.9 0.5-0.3 0.1-0.9 0.7 0.6 0.9 1.1 1.2 1.5 0-0.3 0.8-1.4 0.8-0.1l0.2-1.3c0.3-0.2 0.4 1.1 0.7 0.2 0.3-0.9 0.9-0.2 1.5-0.5-0.2 0.4-0.1 1.2 0.6 0.7l0.8-0.7c0.5 1.2 1.3 0.7 1.7 0.5 4.4-2.8 8.8-6.1 13-9.4l-0.1 1.3 0.5-1.6c0.5 0.5 0.9 0.1 1.1-0.2 0.6-1 1.4-2 2.7-2.9-1.6 4.3-3.5 7.7-5.9 10.5l-1 1.2c0 0.7-0.2 1.6-1 1.7-0.4 0.1-1.2-0.2-1.8 0.4-0.3 0.4 0.7 1.2-0.1 0.6-0.7-0.5-1.4 0-2.2 0.2-0.6 0.2 0.4 0.8 0.6 1.2 0.2 0.4 0.4 0.8 0.3 1.3l-1.1-1.2c-1.3 0.7-2.1 2-3.2 3-0.5 0.4-0.3 1.1-0.3 1.7-0.7 0-1.5-0.2-1.9 0.2-0.3 0.4-0.2 1-0.2 1.6-1-0.1-1.1-1.6-2-1.3-0.9 0.2-1.9 0.3-2.7 0.8 0.6 1.2-1 0.5-0.8 0.7-1.5-0.9-2.8-1.6-4.4-1-3.4-1.1-7.6-0.6-10.7-0.2 0-0.5 0.1-1-0.1-1.1-0.2 0.5-0.8 0.3-0.7 0.3-1.9-1.3-3.8-2.1-5.8-3.2-1.8 0.2-3.5-0.7-4-1.2-1.4-1.3-3-0.6-4.3-0.9-2.8-0.7-3.8-3.6-4.1-5.6-0.2-1-1-1.4-1.3-1.3-1.3-4.2-3.3-8-4.9-11.9-0.4-1-0.3-2-0.3-3.1 0.5 0.2 1 0.1 0.9-0.6-0.5-3.3-1.7-5.8-3-8.2 0.7-3.4 0.8-7.4 2.4-10.4 1.4-2.7 4-4.1 5.8-6.4 0.6-0.8 0.6-1.9 1.2-2.6 2-2 4-4.1 6.2-5.9 1-0.8 2.2 0 3.7-0.3 0.5-1.8 2.5-3.4 4.4-2.9 0.8 0.2 2.4-1.9 2.9-2.1 0.8-0.3 0.4 0.8 0.4 1.5 1.9-1.5 4.5-2.3 6.9-3.2" fill="#264f0b" fill-rule="nonzero" stroke="none" stroke-width="1" stroke-linecap="butt" stroke-linejoin="miter" stroke-miterlimit="10" stroke-dasharray="" stroke-dashoffset="0" font-family="none" font-weight="none" font-size="none" text-anchor="none" style="mix-blend-mode: normal" data-fill-palette-color="tertiary"></path></g><g transform="matrix(1,0,0,1,85.48507923760829,90)"><svg viewBox="0 0 149.02984152478342 180" height="180" width="149.02984152478342"><g><svg viewBox="0 0 149.02984152478342 180" height="180" width="149.02984152478342"><g><svg viewBox="0 0 192 231.89986412387566" height="180" width="149.02984152478342"><g transform="matrix(1,0,0,1,0,132.80878947623785)"><svg viewBox="0 0 192 99.09107464763781" height="99.09107464763781" width="192"><g id="textblocktransform"><svg viewBox="0 0 192 99.09107464763781" height="99.09107464763781" width="192" id="textblock"><g><svg viewBox="0 0 192 60.139821795750514" height="60.139821795750514" width="192"><g transform="matrix(1,0,0,1,0,0)"><svg width="192" viewBox="4.1 -35.1 145.89000000000001 45.7" height="60.139821795750514" data-palette-color="#264f0b"><path d="M12.8 0L5.65 0Q4.1 0 4.1-1.5L4.1-1.5 4.1-33.5Q4.1-35 5.5-35L5.5-35 12.25-35Q21.85-35 21.85-25.5L21.85-25.5Q21.85-23.05 20.73-21.18 19.6-19.3 17.55-18.45L17.55-18.45 17.55-18.25Q20.2-17.3 21.7-15.08 23.2-12.85 23.2-9.9L23.2-9.9Q23.2 0 12.8 0L12.8 0ZM8.6-31.2L8.6-19.8 12.25-19.8Q14.65-19.8 16.03-21.33 17.4-22.85 17.4-25.5L17.4-25.5Q17.4-31.2 12.25-31.2L12.25-31.2 8.6-31.2ZM8.6-16L8.6-3.8 12.8-3.8Q18.65-3.8 18.65-9.9L18.65-9.9Q18.65-12.75 17.03-14.38 15.4-16 12.25-16L12.25-16 8.6-16ZM29.5 0.1L29.3 0.1Q27.3 0.1 27.3-1L27.3-1 27.3-18.65Q27.3-21.75 27.05-23.18 26.8-24.6 26.8-25.1L26.8-25.1Q26.8-25.65 27.85-25.88 28.9-26.1 29.7-26.1L29.7-26.1Q30.4-26.1 30.67-25.38 30.95-24.65 31.3-22.75L31.3-22.75Q32.6-24.5 34.3-25.48 36-26.45 37.55-26.45L37.55-26.45Q38.4-26.45 38.7-26.05 39-25.65 39-24.85L39-24.85Q39-23.75 38.7-22.93 38.4-22.1 37.95-22.1L37.95-22.1Q37.6-22.1 37.12-22.23 36.65-22.35 35.7-22.35L35.7-22.35Q34.3-22.35 33.15-21.48 32-20.6 31.6-19.3L31.6-19.3 31.6-1Q31.6 0.1 29.5 0.1L29.5 0.1ZM44.4 0.1L44 0.1Q42.9 0.1 42.47-0.2 42.05-0.5 42.05-1L42.05-1 42.05-25.15Q42.05-25.7 42.47-25.98 42.9-26.25 44-26.25L44-26.25 44.4-26.25Q45.5-26.25 45.92-25.98 46.35-25.7 46.35-25.15L46.35-25.15 46.35-1Q46.35-0.5 45.92-0.2 45.5 0.1 44.4 0.1L44.4 0.1ZM44.2-29.75L44.2-29.75Q43-29.75 42.5-30.05 42-30.35 42-30.85L42-30.85 42-33.85Q42-34.35 42.5-34.65 43-34.95 44.2-34.95L44.2-34.95Q45.4-34.95 45.9-34.68 46.4-34.4 46.4-33.85L46.4-33.85 46.4-30.85Q46.4-30.35 45.9-30.05 45.4-29.75 44.2-29.75ZM55.89 0.1L55.49 0.1Q54.39 0.1 53.97-0.2 53.54-0.5 53.54-1L53.54-1 53.54-18.65Q53.54-21.75 53.29-23.18 53.04-24.6 53.04-25.1L53.04-25.1Q53.04-25.65 54.09-25.88 55.14-26.1 55.94-26.1L55.94-26.1Q56.64-26.1 56.92-25.35 57.19-24.6 57.54-22.7L57.54-22.7Q58.79-24.45 60.47-25.45 62.14-26.45 64.14-26.45L64.14-26.45Q65.89-26.45 67.39-25.75 68.89-25.05 69.82-23.55 70.74-22.05 70.74-19.6L70.74-19.6 70.74-1Q70.74-0.5 70.32-0.2 69.89 0.1 68.79 0.1L68.79 0.1 68.39 0.1Q67.29 0.1 66.87-0.2 66.44-0.5 66.44-1L66.44-1 66.44-18.75Q66.44-20.65 65.52-21.73 64.59-22.8 62.69-22.8L62.69-22.8Q61.39-22.8 60.34-22.18 59.29-21.55 58.67-20.73 58.04-19.9 57.84-19.3L57.84-19.3 57.84-1Q57.84-0.5 57.42-0.2 56.99 0.1 55.89 0.1L55.89 0.1ZM84.24 10.6L84.24 10.6Q75.34 10.6 75.34 4.15L75.34 4.15Q75.34 2 76.42 0.35 77.49-1.3 79.34-2.25L79.34-2.25 79.34-2.35Q77.74-3.65 77.74-6L77.74-6Q77.74-7.6 78.37-8.7 78.99-9.8 80.09-10.6L80.09-10.6Q78.04-11.6 77.19-13.55 76.34-15.5 76.34-17.85L76.34-17.85Q76.34-21.65 78.44-24.05 80.54-26.45 84.64-26.45L84.64-26.45Q85.89-26.45 86.99-26.15L86.99-26.15 94.49-26.15Q95.49-26.15 95.49-24.7L95.49-24.7 95.49-24.1Q95.49-22.7 94.49-22.7L94.49-22.7Q93.54-22.7 92.84-22.73 92.14-22.75 91.59-22.8L91.59-22.8 91.49-22.7Q92.84-20.55 92.84-17.9L92.84-17.9Q92.84-14.4 90.84-12 88.84-9.6 85.04-9.45L85.04-9.45Q83.49-9.4 82.47-8.7 81.44-8 81.44-6.4L81.44-6.4Q81.44-5.15 82.29-4.58 83.14-4 84.49-3.8 85.84-3.6 87.29-3.35L87.29-3.35Q90.24-2.95 92.19-1.43 94.14 0.1 94.14 3.2L94.14 3.2Q94.14 6.75 91.64 8.68 89.14 10.6 84.24 10.6ZM84.59-12.95L84.59-12.95Q85.79-12.95 86.79-13.35 87.79-13.75 88.39-14.8 88.99-15.85 88.99-17.8L88.99-17.8Q88.99-20 88.39-21.13 87.79-22.25 86.79-22.68 85.79-23.1 84.59-23.1L84.59-23.1Q83.39-23.1 82.42-22.68 81.44-22.25 80.84-21.13 80.24-20 80.24-17.8L80.24-17.8Q80.24-14.85 81.52-13.9 82.79-12.95 84.59-12.95ZM84.59 7.25L84.59 7.25Q90.24 7.25 90.24 3.65L90.24 3.65Q90.24 2.05 89.37 1.3 88.49 0.55 87.12 0.25 85.74-0.05 84.27-0.2 82.79-0.35 81.59-0.75L81.59-0.75Q80.64-0.2 79.94 0.88 79.24 1.95 79.24 3.5L79.24 3.5Q79.24 7.25 84.59 7.25ZM102.24 0.1L101.84 0.1Q100.74 0.1 100.26-0.2 99.79-0.5 99.79-1L99.79-1 99.79-34Q99.79-34.55 100.26-34.83 100.74-35.1 101.84-35.1L101.84-35.1 102.94-35.1Q105.09-35.1 105.44-34.2L105.44-34.2 111.64-18.55Q111.89-17.95 112.11-17.35 112.34-16.75 112.44-16.15L112.44-16.15Q112.54-16.75 112.79-17.35 113.04-17.95 113.24-18.55L113.24-18.55 119.44-34.2Q119.84-35.1 121.94-35.1L121.94-35.1 123.04-35.1Q124.19-35.1 124.64-34.83 125.09-34.55 125.09-34L125.09-34 125.09-1Q125.09-0.5 124.64-0.2 124.19 0.1 123.04 0.1L123.04 0.1 122.64 0.1Q121.54 0.1 121.06-0.2 120.59-0.5 120.59-1L120.59-1 120.59-22.9Q120.59-23.8 120.66-24.68 120.74-25.55 120.84-26.45L120.84-26.45 120.64-26.55Q120.29-25.7 120.01-24.85 119.74-24 119.34-23.1L119.34-23.1 115.29-13Q115.04-12.35 114.41-12.15 113.79-11.95 112.79-11.95L112.79-11.95 112.09-11.95Q111.14-11.95 110.49-12.15 109.84-12.35 109.59-13L109.59-13 105.54-23.1Q105.19-24 104.89-24.85 104.59-25.7 104.24-26.55L104.24-26.55 104.04-26.45Q104.14-25.55 104.21-24.68 104.29-23.8 104.29-22.9L104.29-22.9 104.29-1Q104.29-0.5 103.84-0.2 103.39 0.1 102.24 0.1L102.24 0.1ZM141.49 0.3L141.49 0.3Q136.49 0.3 133.94-2.95 131.38-6.2 131.38-12.9L131.38-12.9Q131.38-19.55 133.88-23 136.38-26.45 141.24-26.45L141.24-26.45Q145.59-26.45 147.78-23.1 149.99-19.75 149.99-13.35L149.99-13.35Q149.99-11.35 148.24-11.35L148.24-11.35 135.78-11.35Q135.94-7.2 137.34-5.25 138.74-3.3 141.78-3.3L141.78-3.3Q143.53-3.3 144.88-3.8 146.24-4.3 147.11-4.78 147.99-5.25 148.24-5.25L148.24-5.25Q148.74-5.25 149.06-4.38 149.38-3.5 149.38-2.9L149.38-2.9Q149.38-2.45 148.34-1.68 147.28-0.9 145.51-0.3 143.74 0.3 141.49 0.3ZM135.84-14.95L135.84-14.95 145.74-14.95Q145.74-22.85 141.09-22.85L141.09-22.85Q135.99-22.85 135.84-14.95Z" opacity="1" transform="matrix(1,0,0,1,0,0)" fill="#264f0b" class="wordmark-text-0" data-fill-palette-color="primary" id="text-0"></path></svg></g></svg></g><g transform="matrix(1,0,0,1,0,68.9156651514736)"><svg viewBox="0 0 192 30.17540949616421" height="30.17540949616421" width="192"><g transform="matrix(1,0,0,1,0,0)"><svg width="192" viewBox="4.15 -37.6 241.15 37.9" height="30.17540949616421" data-palette-color="#264f0b"><path d="M6.6 0.1L6.2 0.1Q5.1 0.1 4.63-0.2 4.15-0.5 4.15-1L4.15-1 4.15-34Q4.15-34.55 4.63-34.83 5.1-35.1 6.2-35.1L6.2-35.1 6.6-35.1Q7.75-35.1 8.2-34.83 8.65-34.55 8.65-34L8.65-34 8.65-1Q8.65-0.5 8.2-0.2 7.75 0.1 6.6 0.1L6.6 0.1ZM18.7 0.1L18.3 0.1Q17.2 0.1 16.78-0.2 16.35-0.5 16.35-1L16.35-1 16.35-18.65Q16.35-21.75 16.1-23.18 15.85-24.6 15.85-25.1L15.85-25.1Q15.85-25.65 16.9-25.88 17.95-26.1 18.75-26.1L18.75-26.1Q19.45-26.1 19.73-25.35 20-24.6 20.35-22.7L20.35-22.7Q21.6-24.45 23.28-25.45 24.95-26.45 26.95-26.45L26.95-26.45Q28.7-26.45 30.2-25.75 31.7-25.05 32.63-23.55 33.55-22.05 33.55-19.6L33.55-19.6 33.55-1Q33.55-0.5 33.13-0.2 32.7 0.1 31.6 0.1L31.6 0.1 31.2 0.1Q30.1 0.1 29.68-0.2 29.25-0.5 29.25-1L29.25-1 29.25-18.75Q29.25-20.65 28.33-21.73 27.4-22.8 25.5-22.8L25.5-22.8Q24.2-22.8 23.15-22.18 22.1-21.55 21.48-20.73 20.85-19.9 20.65-19.3L20.65-19.3 20.65-1Q20.65-0.5 20.23-0.2 19.8 0.1 18.7 0.1L18.7 0.1ZM46.6 0.3L46.6 0.3Q45.55 0.3 44.25-0.15 42.95-0.6 42.02-1.93 41.1-3.25 41.1-5.8L41.1-5.8 41.1-22.55 39.1-22.55Q38.1-22.55 38.1-24.05L38.1-24.05 38.1-24.65Q38.1-26.15 39.1-26.15L39.1-26.15 41.1-26.15 41.7-31.4Q41.85-32.5 43.25-32.5L43.25-32.5 43.65-32.5Q44.65-32.5 45.02-32.23 45.4-31.95 45.4-31.4L45.4-31.4 45.4-26.15 48.75-26.15Q49.75-26.15 49.75-24.65L49.75-24.65 49.75-24.05Q49.75-22.55 48.75-22.55L48.75-22.55 45.4-22.55 45.4-6.3Q45.4-4.55 45.77-3.93 46.15-3.3 47.25-3.3L47.25-3.3Q48.15-3.3 48.58-3.43 49-3.55 49.25-3.55L49.25-3.55Q49.6-3.55 49.77-3.05 49.95-2.55 50-1.98 50.05-1.4 50.05-1.15L50.05-1.15Q50.05-0.65 49.45-0.33 48.85 0 48.05 0.15 47.25 0.3 46.6 0.3ZM63.2 0.3L63.2 0.3Q58.2 0.3 55.65-2.95 53.1-6.2 53.1-12.9L53.1-12.9Q53.1-19.55 55.6-23 58.1-26.45 62.95-26.45L62.95-26.45Q67.3-26.45 69.5-23.1 71.7-19.75 71.7-13.35L71.7-13.35Q71.7-11.35 69.95-11.35L69.95-11.35 57.5-11.35Q57.65-7.2 59.05-5.25 60.45-3.3 63.5-3.3L63.5-3.3Q65.25-3.3 66.6-3.8 67.95-4.3 68.83-4.78 69.7-5.25 69.95-5.25L69.95-5.25Q70.45-5.25 70.78-4.38 71.1-3.5 71.1-2.9L71.1-2.9Q71.1-2.45 70.05-1.68 69-0.9 67.22-0.3 65.45 0.3 63.2 0.3ZM57.55-14.95L57.55-14.95 67.45-14.95Q67.45-22.85 62.8-22.85L62.8-22.85Q57.7-22.85 57.55-14.95ZM79.4 0.1L79.2 0.1Q77.2 0.1 77.2-1L77.2-1 77.2-18.65Q77.2-21.75 76.95-23.18 76.7-24.6 76.7-25.1L76.7-25.1Q76.7-25.65 77.75-25.88 78.8-26.1 79.6-26.1L79.6-26.1Q80.3-26.1 80.57-25.38 80.85-24.65 81.2-22.75L81.2-22.75Q82.5-24.5 84.2-25.48 85.9-26.45 87.45-26.45L87.45-26.45Q88.3-26.45 88.6-26.05 88.9-25.65 88.9-24.85L88.9-24.85Q88.9-23.75 88.6-22.93 88.3-22.1 87.85-22.1L87.85-22.1Q87.5-22.1 87.02-22.23 86.55-22.35 85.6-22.35L85.6-22.35Q84.2-22.35 83.05-21.48 81.9-20.6 81.5-19.3L81.5-19.3 81.5-1Q81.5 0.1 79.4 0.1L79.4 0.1ZM94.3 0.1L93.9 0.1Q92.8 0.1 92.38-0.2 91.95-0.5 91.95-1L91.95-1 91.95-18.65Q91.95-21.75 91.7-23.18 91.45-24.6 91.45-25.1L91.45-25.1Q91.45-25.65 92.5-25.88 93.55-26.1 94.35-26.1L94.35-26.1Q95.05-26.1 95.32-25.35 95.6-24.6 95.95-22.7L95.95-22.7Q97.2-24.45 98.88-25.45 100.55-26.45 102.55-26.45L102.55-26.45Q104.3-26.45 105.8-25.75 107.3-25.05 108.22-23.55 109.15-22.05 109.15-19.6L109.15-19.6 109.15-1Q109.15-0.5 108.72-0.2 108.3 0.1 107.2 0.1L107.2 0.1 106.8 0.1Q105.7 0.1 105.27-0.2 104.85-0.5 104.85-1L104.85-1 104.85-18.75Q104.85-20.65 103.92-21.73 103-22.8 101.1-22.8L101.1-22.8Q99.8-22.8 98.75-22.18 97.7-21.55 97.07-20.73 96.45-19.9 96.25-19.3L96.25-19.3 96.25-1Q96.25-0.5 95.82-0.2 95.4 0.1 94.3 0.1L94.3 0.1ZM121.65 0.3L121.65 0.3Q118.45 0.3 116.52-1.68 114.6-3.65 114.6-7.45L114.6-7.45Q114.6-10.45 115.82-12.28 117.05-14.1 119.02-15.03 121-15.95 123.35-16.25 125.7-16.55 127.95-16.55L127.95-16.55 127.95-18.95Q127.95-20.5 127.02-21.68 126.1-22.85 123.7-22.85L123.7-22.85Q121.85-22.85 120.32-22.45 118.8-22.05 117.85-21.63 116.9-21.2 116.6-21.2L116.6-21.2Q116.1-21.2 115.8-22.15 115.5-23.1 115.5-23.7L115.5-23.7Q115.5-24.15 116.75-24.8 118-25.45 119.9-25.95 121.8-26.45 123.75-26.45L123.75-26.45Q127.75-26.45 130-24.45 132.25-22.45 132.25-18.9L132.25-18.9 132.25-7.4Q132.25-4.35 132.5-2.93 132.75-1.5 132.75-1.15L132.75-1.15Q132.75-0.55 131.7-0.25 130.65 0.05 129.85 0.05L129.85 0.05Q129.2 0.05 128.92-0.68 128.65-1.4 128.3-3.15L128.3-3.15Q127.05-1.55 125.42-0.63 123.8 0.3 121.65 0.3ZM122.45-3.25L122.45-3.25Q124.2-3.25 125.57-4.1 126.95-4.95 127.95-6.5L127.95-6.5 127.95-13Q123.05-13 121.02-11.88 119-10.75 119-7.5L119-7.5Q119-3.25 122.45-3.25ZM145.45 0.3L145.45 0.3Q144.4 0.3 143.1-0.15 141.8-0.6 140.88-1.93 139.95-3.25 139.95-5.8L139.95-5.8 139.95-22.55 137.95-22.55Q136.95-22.55 136.95-24.05L136.95-24.05 136.95-24.65Q136.95-26.15 137.95-26.15L137.95-26.15 139.95-26.15 140.55-31.4Q140.7-32.5 142.1-32.5L142.1-32.5 142.5-32.5Q143.5-32.5 143.88-32.23 144.25-31.95 144.25-31.4L144.25-31.4 144.25-26.15 147.6-26.15Q148.6-26.15 148.6-24.65L148.6-24.65 148.6-24.05Q148.6-22.55 147.6-22.55L147.6-22.55 144.25-22.55 144.25-6.3Q144.25-4.55 144.63-3.93 145-3.3 146.1-3.3L146.1-3.3Q147-3.3 147.42-3.43 147.85-3.55 148.1-3.55L148.1-3.55Q148.45-3.55 148.63-3.05 148.8-2.55 148.85-1.98 148.9-1.4 148.9-1.15L148.9-1.15Q148.9-0.65 148.3-0.33 147.7 0 146.9 0.15 146.1 0.3 145.45 0.3ZM156.2 0.1L155.8 0.1Q154.7 0.1 154.28-0.2 153.85-0.5 153.85-1L153.85-1 153.85-25.15Q153.85-25.7 154.28-25.98 154.7-26.25 155.8-26.25L155.8-26.25 156.2-26.25Q157.3-26.25 157.72-25.98 158.15-25.7 158.15-25.15L158.15-25.15 158.15-1Q158.15-0.5 157.72-0.2 157.3 0.1 156.2 0.1L156.2 0.1ZM156-29.75L156-29.75Q154.8-29.75 154.3-30.05 153.8-30.35 153.8-30.85L153.8-30.85 153.8-33.85Q153.8-34.35 154.3-34.65 154.8-34.95 156-34.95L156-34.95Q157.2-34.95 157.7-34.68 158.2-34.4 158.2-33.85L158.2-33.85 158.2-30.85Q158.2-30.35 157.7-30.05 157.2-29.75 156-29.75ZM173.6 0.3L173.6 0.3Q168.9 0.3 166.43-3.1 163.95-6.5 163.95-12.95L163.95-12.95Q163.95-19.45 166.43-22.95 168.9-26.45 173.6-26.45L173.6-26.45Q178.25-26.45 180.68-22.98 183.1-19.5 183.1-12.95L183.1-12.95Q183.1-6.45 180.7-3.08 178.3 0.3 173.6 0.3ZM173.5-3.3L173.5-3.3Q176.15-3.3 177.43-5.68 178.7-8.05 178.7-13.05L178.7-13.05Q178.7-18.05 177.43-20.45 176.15-22.85 173.5-22.85L173.5-22.85Q170.8-22.85 169.57-20.48 168.35-18.1 168.35-13.05L168.35-13.05Q168.35-8.05 169.57-5.68 170.8-3.3 173.5-3.3ZM191.2 0.1L190.8 0.1Q189.7 0.1 189.28-0.2 188.85-0.5 188.85-1L188.85-1 188.85-18.65Q188.85-21.75 188.6-23.18 188.35-24.6 188.35-25.1L188.35-25.1Q188.35-25.65 189.4-25.88 190.45-26.1 191.25-26.1L191.25-26.1Q191.95-26.1 192.22-25.35 192.5-24.6 192.85-22.7L192.85-22.7Q194.1-24.45 195.78-25.45 197.45-26.45 199.45-26.45L199.45-26.45Q201.2-26.45 202.7-25.75 204.2-25.05 205.13-23.55 206.05-22.05 206.05-19.6L206.05-19.6 206.05-1Q206.05-0.5 205.63-0.2 205.2 0.1 204.1 0.1L204.1 0.1 203.7 0.1Q202.6 0.1 202.18-0.2 201.75-0.5 201.75-1L201.75-1 201.75-18.75Q201.75-20.65 200.82-21.73 199.9-22.8 198-22.8L198-22.8Q196.7-22.8 195.65-22.18 194.6-21.55 193.97-20.73 193.35-19.9 193.15-19.3L193.15-19.3 193.15-1Q193.15-0.5 192.72-0.2 192.3 0.1 191.2 0.1L191.2 0.1ZM218.55 0.3L218.55 0.3Q215.35 0.3 213.43-1.68 211.5-3.65 211.5-7.45L211.5-7.45Q211.5-10.45 212.72-12.28 213.95-14.1 215.93-15.03 217.9-15.95 220.25-16.25 222.6-16.55 224.85-16.55L224.85-16.55 224.85-18.95Q224.85-20.5 223.93-21.68 223-22.85 220.6-22.85L220.6-22.85Q218.75-22.85 217.22-22.45 215.7-22.05 214.75-21.63 213.8-21.2 213.5-21.2L213.5-21.2Q213-21.2 212.7-22.15 212.4-23.1 212.4-23.7L212.4-23.7Q212.4-24.15 213.65-24.8 214.9-25.45 216.8-25.95 218.7-26.45 220.65-26.45L220.65-26.45Q224.65-26.45 226.9-24.45 229.15-22.45 229.15-18.9L229.15-18.9 229.15-7.4Q229.15-4.35 229.4-2.93 229.65-1.5 229.65-1.15L229.65-1.15Q229.65-0.55 228.6-0.25 227.55 0.05 226.75 0.05L226.75 0.05Q226.1 0.05 225.82-0.68 225.55-1.4 225.2-3.15L225.2-3.15Q223.95-1.55 222.32-0.63 220.7 0.3 218.55 0.3ZM219.35-3.25L219.35-3.25Q221.1-3.25 222.47-4.1 223.85-4.95 224.85-6.5L224.85-6.5 224.85-13Q219.95-13 217.93-11.88 215.9-10.75 215.9-7.5L215.9-7.5Q215.9-3.25 219.35-3.25ZM241.85 0.3L241.85 0.3Q240.8 0.3 239.53-0.15 238.25-0.6 237.3-1.93 236.35-3.25 236.35-5.8L236.35-5.8 236.35-36.5Q236.35-37.05 236.78-37.33 237.2-37.6 238.3-37.6L238.3-37.6 238.7-37.6Q239.8-37.6 240.22-37.33 240.65-37.05 240.65-36.5L240.65-36.5 240.65-6.3Q240.65-4.55 241.03-3.93 241.4-3.3 242.5-3.3L242.5-3.3Q243.4-3.3 243.82-3.43 244.25-3.55 244.5-3.55L244.5-3.55Q244.85-3.55 245.03-3.05 245.2-2.55 245.25-1.98 245.3-1.4 245.3-1.15L245.3-1.15Q245.3-0.65 244.7-0.33 244.1 0 243.3 0.15 242.5 0.3 241.85 0.3Z" opacity="1" transform="matrix(1,0,0,1,0,0)" fill="#264f0b" class="slogan-text-1" data-fill-palette-color="secondary" id="text-1"></path></svg></g></svg></g></svg></g></svg></g><g transform="matrix(1,0,0,1,36.672,0)"><svg viewBox="0 0 118.656 124.03294612051474" height="124.03294612051474" width="118.656"><g><svg xmlns="http://www.w3.org/2000/svg" xml:space="preserve" viewBox="44.999999999999886 37.62867017274633 889.1412465902348 929.4330529585852" x="0" y="0" height="124.03294612051474" width="118.656" class="icon-icon-0" data-fill-palette-color="accent" id="icon-0"><path d="M584 839c-33.2 17.3-46.2 58.2-28.9 91.5 17.3 33.2 58.2 46.2 91.5 28.9 33.2-17.3 46.2-58.2 28.9-91.5-17.3-33.2-58.3-46.1-91.5-28.9m43.5 83.8c-13 6.8-29.1 1.7-35.9-11.3s-1.7-29.1 11.3-35.9 29.1-1.7 35.9 11.3c6.9 13.1 1.8 29.2-11.3 35.9" fill="#fd6c23" data-fill-palette-color="accent"></path><path d="M884.9 770.4l-182.3 94.7-222.7-428.4c2.1-11.2-2-23.6-13.6-30.7-34.8-7.1-69.8-14.3-104.6-21.4l-0.2-0.9-2.1 0.4c-0.3-0.1-0.5-0.1-0.8-0.2l-0.1 0.3-47.1 9.5c-16.9-38.8-33.8-77.7-50.7-116.5-40-62.7-120.7-50.5-154.1-1.7-0.4-0.1-0.7-0.2-1.1-0.4-0.4 1.3-0.9 2.7-1.3 4.1-6.9 11.2-11.3 24.1-12.4 38.4-15.5 48.6-31.2 97.1-46.8 145.6q0.15 3.3 0.9 6.3c0.1 13.6 9.2 26.9 25.2 29.3 27.2-5.5 54.5-10.9 81.7-16.4 27 62 54 123.9 80.9 185.9l1.1-0.5c2.5 35 5.1 70 7.6 105-20.2 47.9-40.5 95.8-60.8 143.6-3 41.3 48.1 62.9 75.7 32 22.7-53.7 45.5-107.5 68.2-161.2h0.3v-0.6c0.1-0.3 0.2-0.6 0.4-0.8l-0.4-0.2-11.1-152.4h-0.5l9.6-4.2c19.2 43.7 38.3 87.4 57.5 131.1h-0.1c23.6 53.9 47.3 107.9 70.9 161.8 28 30.6 78.8 8.3 75.3-33-23.3-53.2-46.8-106.6-70.1-159.9h0.1c-19.4-44.3-38.8-88.5-58.2-132.8l0.4-0.2c-21.8-50-43.6-100-65.4-150.1l25.2-5.1c31.9 6.5 63.9 13.1 95.8 19.6 6.2-0.9 11.4-3.5 15.4-7.1l241.7 465 14.2-7.4-16.5-31.6 182.3-94.7zM113 433.6c2.6-8.2 5.3-16.4 7.9-24.5 3.1 7 6.1 14.1 9.2 21.1-5.7 1.1-11.4 2.2-17.1 3.4" fill="#fd6c23" data-fill-palette-color="accent"></path><path d="M703.4 838.1c2.6 5 8.8 6.9 13.8 4.3l93.6-48.7-148.3-285.1-93.6 48.7c-5 2.6-6.9 8.8-4.3 13.8zM933 718.8L794.1 451.7c-2.6-5-8.8-6.9-13.8-4.3l-98.3 51 148.3 285.3 98.3-51.1c5-2.6 7-8.8 4.4-13.8M169.9 107.5c-0.5-0.2-0.8-0.4-0.8-0.4s-0.1-0.7-0.1-1.8c-4.2 5.9-7.6 12.5-10 19.7-13.5 40 7.9 83.3 47.9 96.8 39.7 13.4 82.8-7.7 96.6-47.2l-10.5-6c-52.8-29.5-115.3-57.6-123.1-61.1M171.1 98.9c0.1 1.1 0.1 1.8 0.1 1.8s0.3 0.1 0.8 0.4c7.9 3.5 70.4 31.5 122.9 61.1q5.4 3 10.5 6c15.1 8.8 28.9 17.5 39.7 25.7-6.6-28.6-26.8-56.1-26.8-56.1-2.3-2.9-5.5-5.8-9.3-8.8 90.9-51.6-59.6-86.6-106.5-91.1-35.5-3.4-33.4 26-30.1 40.8-1.9 5.7-1.6 16-1.3 20.2" fill="#fd6c23" data-fill-palette-color="accent"></path></svg></g></svg></g><g></g></svg></g></svg></g></svg></g></svg></g><defs></defs></svg><rect width="320" height="360" fill="none" stroke="none" visibility="hidden"></rect></g></svg></g></svg>